name C:\Users\u0101727\Documents\MyRepositories\upper-imu-dc\OpenSim\subject0\MA\ResultsMA\grid_4nodes_9dim\angles_5.mot
datacolumns 10
datarows 18
range 500.01000000 500.18000000
endheader 
time	clav_prot	clav_elev	scapula_abduction	scapula_elevation	scapula_upward_rot	scapula_winging	plane_elv	shoulder_elv	axial_rot	
        500.01000000	        -50.00000000	        -10.00000000	        -21.66666667	         -3.33333333	         90.00000000	        -20.00000000	        -90.00000000	        100.00000000	        -90.00000000	
        500.02000000	        -38.33333333	        -10.00000000	        -21.66666667	         -3.33333333	         90.00000000	        -20.00000000	        -90.00000000	        100.00000000	        -90.00000000	
        500.03000000	        -26.66666667	        -10.00000000	        -21.66666667	         -3.33333333	         90.00000000	        -20.00000000	        -90.00000000	        100.00000000	        -90.00000000	
        500.04000000	        -15.00000000	        -10.00000000	        -21.66666667	         -3.33333333	         90.00000000	        -20.00000000	        -90.00000000	        100.00000000	        -90.00000000	
        500.05000000	        -50.00000000	          0.00000000	        -21.66666667	         -3.33333333	         90.00000000	        -20.00000000	        -90.00000000	        100.00000000	        -90.00000000	
        500.06000000	        -38.33333333	          0.00000000	        -21.66666667	         -3.33333333	         90.00000000	        -20.00000000	        -90.00000000	        100.00000000	        -90.00000000	
        500.07000000	        -26.66666667	          0.00000000	        -21.66666667	         -3.33333333	         90.00000000	        -20.00000000	        -90.00000000	        100.00000000	        -90.00000000	
        500.08000000	        -15.00000000	          0.00000000	        -21.66666667	         -3.33333333	         90.00000000	        -20.00000000	        -90.00000000	        100.00000000	        -90.00000000	
        500.09000000	        -50.00000000	         10.00000000	        -21.66666667	         -3.33333333	         90.00000000	        -20.00000000	        -90.00000000	        100.00000000	        -90.00000000	
        500.10000000	        -38.33333333	         10.00000000	        -21.66666667	         -3.33333333	         90.00000000	        -20.00000000	        -90.00000000	        100.00000000	        -90.00000000	
        500.11000000	        -26.66666667	         10.00000000	        -21.66666667	         -3.33333333	         90.00000000	        -20.00000000	        -90.00000000	        100.00000000	        -90.00000000	
        500.12000000	        -15.00000000	         10.00000000	        -21.66666667	         -3.33333333	         90.00000000	        -20.00000000	        -90.00000000	        100.00000000	        -90.00000000	
        500.13000000	        -50.00000000	         20.00000000	        -21.66666667	         -3.33333333	         90.00000000	        -20.00000000	        -90.00000000	        100.00000000	        -90.00000000	
        500.14000000	        -38.33333333	         20.00000000	        -21.66666667	         -3.33333333	         90.00000000	        -20.00000000	        -90.00000000	        100.00000000	        -90.00000000	
        500.15000000	        -26.66666667	         20.00000000	        -21.66666667	         -3.33333333	         90.00000000	        -20.00000000	        -90.00000000	        100.00000000	        -90.00000000	
        500.16000000	        -15.00000000	         20.00000000	        -21.66666667	         -3.33333333	         90.00000000	        -20.00000000	        -90.00000000	        100.00000000	        -90.00000000	
        500.17000000	        -50.00000000	        -10.00000000	         -3.33333333	         -3.33333333	         90.00000000	        -20.00000000	        -90.00000000	        100.00000000	        -90.00000000	
        500.18000000	        -38.33333333	        -10.00000000	         -3.33333333	         -3.33333333	         90.00000000	        -20.00000000	        -90.00000000	        100.00000000	        -90.00000000	
